<?xml version="1.0" encoding="UTF-8" standalone="no"?>
<svg
   width="23.075062"
   height="26.199997"
   viewBox="0 0 23.075062 26.199997"
   fill="none"
   version="1.1"
   id="svg65"
   sodipodi:docname="appbar tools final.svg"
   xmlns:inkscape="http://www.inkscape.org/namespaces/inkscape"
   xmlns:sodipodi="http://sodipodi.sourceforge.net/DTD/sodipodi-0.dtd"
   xmlns="http://www.w3.org/2000/svg"
   xmlns:svg="http://www.w3.org/2000/svg">
  <sodipodi:namedview
     id="namedview65"
     pagecolor="#ffffff"
     bordercolor="#666666"
     borderopacity="1.0"
     inkscape:showpageshadow="2"
     inkscape:pageopacity="0.0"
     inkscape:pagecheckerboard="0"
     inkscape:deskcolor="#d1d1d1" />
  <rect
     width="393"
     height="60"
     fill="#9cbeff"
     id="rect1"
     x="-24.962467"
     y="-16.900002" />
  <path
     d="m 11.537533,25.599998 c 1.7246,0 3.1235,-1.3989 3.1235,-3.125 H 8.4139328 c 0,1.7261 1.399,3.125 3.1236002,3.125 z m 10.5171,-7.3101 c -0.9434,-1.0136 -2.7085,-2.5385 -2.7085,-7.5337 0,-3.7938995 -2.6602,-6.8309995 -6.2471,-7.5760995 v -1.0176 c 0,-0.8628 -0.6992,-1.56250003 -1.5615,-1.56250003 -0.8623,0 -1.5616002,0.69970003 -1.5616002,1.56250003 v 1.0176 c -3.5869,0.7451 -6.247,3.7822 -6.247,7.5760995 0,4.9952 -1.7652,6.5201 -2.7085,7.5337 -0.29299999,0.315 -0.42289999,0.6914 -0.42039999,1.0601 0.0053,0.8008 0.63379999,1.5625 1.56739999,1.5625 H 20.907633 c 0.9336,0 1.5625,-0.7617 1.5674,-1.5625 0.0024,-0.3687 -0.1275,-0.7456 -0.4204,-1.0601 z"
     fill="#3d9ae2"
     stroke="#ffffff"
     stroke-width="1.2"
     id="path1" />
  <mask
     id="path-28-inside-1_260_2226"
     fill="#ffffff">
    <path
       fill-rule="evenodd"
       clip-rule="evenodd"
       d="M 361.586,43.9191 C 361,44.5049 361,45.4477 361,47.3333 v 8 c 0,3.7712 0,5.6569 1.172,6.8284 1.171,1.1716 3.057,1.1716 6.828,1.1716 h 8 c 3.771,0 5.657,0 6.828,-1.1716 C 385,60.9902 385,59.1045 385,55.3333 v -8 c 0,-1.8856 0,-2.8284 -0.586,-3.4142 -0.586,-0.5858 -1.528,-0.5858 -3.414,-0.5858 h -16 c -1.886,0 -2.828,0 -3.414,0.5858 z M 370,50 c 0,-0.5523 -0.448,-1 -1,-1 -0.552,0 -1,0.4477 -1,1 v 2.6666 c 0,0.5523 0.448,1 1,1 0.552,0 1,-0.4477 1,-1 z m 8,0 c 0,-0.5523 -0.448,-1 -1,-1 -0.552,0 -1,0.4477 -1,1 v 2.6666 c 0,0.5523 0.448,1 1,1 0.552,0 1,-0.4477 1,-1 z"
       id="path27" />
  </mask>
  <rect
     x="-44.462467"
     y="-36.400002"
     width="432"
     height="189"
     rx="4.5"
     stroke="#9747ff"
     stroke-dasharray="10, 5"
     id="rect63" />
  <defs
     id="defs65" />
</svg>
