<?xml version="1.0" encoding="UTF-8" standalone="no"?>
<svg
   width="25"
   height="27.9333"
   viewBox="0 0 25 27.9333"
   fill="none"
   version="1.1"
   id="svg65"
   sodipodi:docname="appbar tools final.svg"
   inkscape:version="1.3 (0e150ed6c4, 2023-07-21)"
   xmlns:inkscape="http://www.inkscape.org/namespaces/inkscape"
   xmlns:sodipodi="http://sodipodi.sourceforge.net/DTD/sodipodi-0.dtd"
   xmlns="http://www.w3.org/2000/svg"
   xmlns:svg="http://www.w3.org/2000/svg">
  <sodipodi:namedview
     id="namedview65"
     pagecolor="#ffffff"
     bordercolor="#666666"
     borderopacity="1.0"
     inkscape:showpageshadow="2"
     inkscape:pageopacity="0.0"
     inkscape:pagecheckerboard="0"
     inkscape:deskcolor="#d1d1d1"
     inkscape:zoom="1.6859122"
     inkscape:cx="201.07808"
     inkscape:cy="2.0760274"
     inkscape:window-width="1440"
     inkscape:window-height="837"
     inkscape:window-x="-8"
     inkscape:window-y="-8"
     inkscape:window-maximized="1"
     inkscape:current-layer="svg65" />
  <rect
     width="393"
     height="60"
     fill="#9cbeff"
     id="rect1"
     x="-340.5"
     y="-15.900002" />
  <mask
     id="path-28-inside-1_260_2226"
     fill="#ffffff">
    <path
       fill-rule="evenodd"
       clip-rule="evenodd"
       d="M 361.586,43.9191 C 361,44.5049 361,45.4477 361,47.3333 v 8 c 0,3.7712 0,5.6569 1.172,6.8284 1.171,1.1716 3.057,1.1716 6.828,1.1716 h 8 c 3.771,0 5.657,0 6.828,-1.1716 C 385,60.9902 385,59.1045 385,55.3333 v -8 c 0,-1.8856 0,-2.8284 -0.586,-3.4142 -0.586,-0.5858 -1.528,-0.5858 -3.414,-0.5858 h -16 c -1.886,0 -2.828,0 -3.414,0.5858 z M 370,50 c 0,-0.5523 -0.448,-1 -1,-1 -0.552,0 -1,0.4477 -1,1 v 2.6666 c 0,0.5523 0.448,1 1,1 0.552,0 1,-0.4477 1,-1 z m 8,0 c 0,-0.5523 -0.448,-1 -1,-1 -0.552,0 -1,0.4477 -1,1 v 2.6666 c 0,0.5523 0.448,1 1,1 0.552,0 1,-0.4477 1,-1 z"
       id="path27" />
  </mask>
  <g
     id="g66"
     inkscape:label="bag"
     transform="translate(-360.5,-35.900002)">
    <path
       d="m 366.5,44 v -0.6 c 0,-3.5898 2.91,-6.5 6.5,-6.5 v 0 c 3.59,0 6.5,2.9102 6.5,6.5 V 44"
       stroke="#ffffff"
       stroke-width="2"
       stroke-linecap="round"
       id="path23" />
    <path
       d="m 369,44.3 v -1 c 0,-2.2092 1.791,-4 4,-4 v 0 c 2.209,0 4,1.7908 4,4 v 1"
       stroke="#ffffff"
       stroke-width="2"
       stroke-linecap="round"
       id="path24" />
    <path
       fill-rule="evenodd"
       clip-rule="evenodd"
       d="M 361.586,43.9191 C 361,44.5049 361,45.4477 361,47.3333 v 8 c 0,3.7712 0,5.6569 1.172,6.8284 1.171,1.1716 3.057,1.1716 6.828,1.1716 h 8 c 3.771,0 5.657,0 6.828,-1.1716 C 385,60.9902 385,59.1045 385,55.3333 v -8 c 0,-1.8856 0,-2.8284 -0.586,-3.4142 -0.586,-0.5858 -1.528,-0.5858 -3.414,-0.5858 h -16 c -1.886,0 -2.828,0 -3.414,0.5858 z M 370,50 c 0,-0.5523 -0.448,-1 -1,-1 -0.552,0 -1,0.4477 -1,1 v 2.6666 c 0,0.5523 0.448,1 1,1 0.552,0 1,-0.4477 1,-1 z m 8,0 c 0,-0.5523 -0.448,-1 -1,-1 -0.552,0 -1,0.4477 -1,1 v 2.6666 c 0,0.5523 0.448,1 1,1 0.552,0 1,-0.4477 1,-1 z"
       fill="#3d9ae2"
       id="path25" />
    <path
       d="m 362.172,62.1617 -0.354,0.3536 v 0 z M 361.5,47.3333 c 0,-0.9569 10e-4,-1.6243 0.069,-2.1279 0.066,-0.4892 0.186,-0.7482 0.37,-0.9327 l -0.707,-0.7072 c -0.401,0.4013 -0.574,0.9066 -0.654,1.5066 -0.079,0.5857 -0.078,1.3325 -0.078,2.2612 z m 0,8 v -8 h -1 v 8 z m 1.025,6.4749 c -0.477,-0.4774 -0.744,-1.1186 -0.883,-2.1524 -0.141,-1.0482 -0.142,-2.4227 -0.142,-4.3225 h -1 c 0,1.8715 -10e-4,3.3254 0.151,4.4557 0.154,1.1447 0.473,2.0321 1.167,2.7263 z M 369,62.8333 c -1.9,0 -3.274,-0.001 -4.322,-0.142 -1.034,-0.139 -1.675,-0.4057 -2.153,-0.8831 l -0.707,0.7071 c 0.694,0.6942 1.582,1.0132 2.726,1.1671 1.131,0.152 2.585,0.1509 4.456,0.1509 z m 8,0 h -8 v 1 h 8 z m 6.475,-1.0251 c -0.478,0.4774 -1.119,0.7441 -2.153,0.8831 -1.048,0.141 -2.422,0.142 -4.322,0.142 v 1 c 1.871,0 3.325,0.0011 4.456,-0.1509 1.144,-0.1539 2.032,-0.4729 2.726,-1.1671 z m 1.025,-6.4749 c 0,1.8998 -10e-4,3.2743 -0.142,4.3225 -0.139,1.0338 -0.406,1.675 -0.883,2.1524 l 0.707,0.7071 c 0.694,-0.6942 1.013,-1.5816 1.167,-2.7263 0.152,-1.1303 0.151,-2.5842 0.151,-4.4557 z m 0,-8 v 8 h 1 v -8 z m -0.439,-3.0606 c 0.184,0.1845 0.304,0.4435 0.37,0.9327 0.068,0.5036 0.069,1.171 0.069,2.1279 h 1 c 0,-0.9287 10e-4,-1.6755 -0.078,-2.2612 -0.08,-0.6 -0.253,-1.1053 -0.654,-1.5066 z M 381,43.8333 c 0.957,0 1.624,0.0011 2.128,0.0688 0.489,0.0657 0.748,0.186 0.933,0.3706 l 0.707,-0.7072 c -0.402,-0.4012 -0.907,-0.5738 -1.507,-0.6545 -0.586,-0.0787 -1.332,-0.0777 -2.261,-0.0777 z m -16,0 h 16 v -1 h -16 z m -3.061,0.4394 c 0.185,-0.1846 0.444,-0.3049 0.933,-0.3706 0.504,-0.0677 1.171,-0.0688 2.128,-0.0688 v -1 c -0.929,0 -1.675,-0.001 -2.261,0.0777 -0.6,0.0807 -1.105,0.2533 -1.507,0.6545 z M 369,49.5 c 0.276,0 0.5,0.2238 0.5,0.5 h 1 c 0,-0.8284 -0.672,-1.5 -1.5,-1.5 z m -0.5,0.5 c 0,-0.2762 0.224,-0.5 0.5,-0.5 v -1 c -0.828,0 -1.5,0.6716 -1.5,1.5 z m 0,2.6666 V 50 h -1 v 2.6666 z m 0.5,0.5 c -0.276,0 -0.5,-0.2238 -0.5,-0.5 h -1 c 0,0.8285 0.672,1.5 1.5,1.5 z m 0.5,-0.5 c 0,0.2762 -0.224,0.5 -0.5,0.5 v 1 c 0.828,0 1.5,-0.6715 1.5,-1.5 z M 369.5,50 v 2.6666 h 1 V 50 Z m 7.5,-0.5 c 0.276,0 0.5,0.2238 0.5,0.5 h 1 c 0,-0.8284 -0.672,-1.5 -1.5,-1.5 z m -0.5,0.5 c 0,-0.2762 0.224,-0.5 0.5,-0.5 v -1 c -0.828,0 -1.5,0.6716 -1.5,1.5 z m 0,2.6666 V 50 h -1 v 2.6666 z m 0.5,0.5 c -0.276,0 -0.5,-0.2238 -0.5,-0.5 h -1 c 0,0.8285 0.672,1.5 1.5,1.5 z m 0.5,-0.5 c 0,0.2762 -0.224,0.5 -0.5,0.5 v 1 c 0.828,0 1.5,-0.6715 1.5,-1.5 z M 377.5,50 v 2.6666 h 1 V 50 Z"
       fill="#ffffff"
       id="path26" />
    <path
       fill-rule="evenodd"
       clip-rule="evenodd"
       d="M 361.586,43.9191 C 361,44.5049 361,45.4477 361,47.3333 v 8 c 0,3.7712 0,5.6569 1.172,6.8284 1.171,1.1716 3.057,1.1716 6.828,1.1716 h 8 c 3.771,0 5.657,0 6.828,-1.1716 C 385,60.9902 385,59.1045 385,55.3333 v -8 c 0,-1.8856 0,-2.8284 -0.586,-3.4142 -0.586,-0.5858 -1.528,-0.5858 -3.414,-0.5858 h -16 c -1.886,0 -2.828,0 -3.414,0.5858 z M 370,50 c 0,-0.5523 -0.448,-1 -1,-1 -0.552,0 -1,0.4477 -1,1 v 2.6666 c 0,0.5523 0.448,1 1,1 0.552,0 1,-0.4477 1,-1 z m 8,0 c 0,-0.5523 -0.448,-1 -1,-1 -0.552,0 -1,0.4477 -1,1 v 2.6666 c 0,0.5523 0.448,1 1,1 0.552,0 1,-0.4477 1,-1 z"
       fill="#3d9ae2"
       id="path28" />
    <path
       d="m 362.172,62.1617 -0.354,0.3536 v 0 z M 361.5,47.3333 c 0,-0.9569 10e-4,-1.6243 0.069,-2.1279 0.066,-0.4892 0.186,-0.7482 0.37,-0.9327 l -0.707,-0.7072 c -0.401,0.4013 -0.574,0.9066 -0.654,1.5066 -0.079,0.5857 -0.078,1.3325 -0.078,2.2612 z m 0,8 v -8 h -1 v 8 z m 1.025,6.4749 c -0.477,-0.4774 -0.744,-1.1186 -0.883,-2.1524 -0.141,-1.0482 -0.142,-2.4227 -0.142,-4.3225 h -1 c 0,1.8715 -10e-4,3.3254 0.151,4.4557 0.154,1.1447 0.473,2.0321 1.167,2.7263 z M 369,62.8333 c -1.9,0 -3.274,-0.001 -4.322,-0.142 -1.034,-0.139 -1.675,-0.4057 -2.153,-0.8831 l -0.707,0.7071 c 0.694,0.6942 1.582,1.0132 2.726,1.1671 1.131,0.152 2.585,0.1509 4.456,0.1509 z m 8,0 h -8 v 1 h 8 z m 6.475,-1.0251 c -0.478,0.4774 -1.119,0.7441 -2.153,0.8831 -1.048,0.141 -2.422,0.142 -4.322,0.142 v 1 c 1.871,0 3.325,0.0011 4.456,-0.1509 1.144,-0.1539 2.032,-0.4729 2.726,-1.1671 z m 1.025,-6.4749 c 0,1.8998 -10e-4,3.2743 -0.142,4.3225 -0.139,1.0338 -0.406,1.675 -0.883,2.1524 l 0.707,0.7071 c 0.694,-0.6942 1.013,-1.5816 1.167,-2.7263 0.152,-1.1303 0.151,-2.5842 0.151,-4.4557 z m 0,-8 v 8 h 1 v -8 z m -0.439,-3.0606 c 0.184,0.1845 0.304,0.4435 0.37,0.9327 0.068,0.5036 0.069,1.171 0.069,2.1279 h 1 c 0,-0.9287 10e-4,-1.6755 -0.078,-2.2612 -0.08,-0.6 -0.253,-1.1053 -0.654,-1.5066 z M 381,43.8333 c 0.957,0 1.624,0.0011 2.128,0.0688 0.489,0.0657 0.748,0.186 0.933,0.3706 l 0.707,-0.7072 c -0.402,-0.4012 -0.907,-0.5738 -1.507,-0.6545 -0.586,-0.0787 -1.332,-0.0777 -2.261,-0.0777 z m -16,0 h 16 v -1 h -16 z m -3.061,0.4394 c 0.185,-0.1846 0.444,-0.3049 0.933,-0.3706 0.504,-0.0677 1.171,-0.0688 2.128,-0.0688 v -1 c -0.929,0 -1.675,-0.001 -2.261,0.0777 -0.6,0.0807 -1.105,0.2533 -1.507,0.6545 z M 369,49.5 c 0.276,0 0.5,0.2238 0.5,0.5 h 1 c 0,-0.8284 -0.672,-1.5 -1.5,-1.5 z m -0.5,0.5 c 0,-0.2762 0.224,-0.5 0.5,-0.5 v -1 c -0.828,0 -1.5,0.6716 -1.5,1.5 z m 0,2.6666 V 50 h -1 v 2.6666 z m 0.5,0.5 c -0.276,0 -0.5,-0.2238 -0.5,-0.5 h -1 c 0,0.8285 0.672,1.5 1.5,1.5 z m 0.5,-0.5 c 0,0.2762 -0.224,0.5 -0.5,0.5 v 1 c 0.828,0 1.5,-0.6715 1.5,-1.5 z M 369.5,50 v 2.6666 h 1 V 50 Z m 7.5,-0.5 c 0.276,0 0.5,0.2238 0.5,0.5 h 1 c 0,-0.8284 -0.672,-1.5 -1.5,-1.5 z m -0.5,0.5 c 0,-0.2762 0.224,-0.5 0.5,-0.5 v -1 c -0.828,0 -1.5,0.6716 -1.5,1.5 z m 0,2.6666 V 50 h -1 v 2.6666 z m 0.5,0.5 c -0.276,0 -0.5,-0.2238 -0.5,-0.5 h -1 c 0,0.8285 0.672,1.5 1.5,1.5 z m 0.5,-0.5 c 0,0.2762 -0.224,0.5 -0.5,0.5 v 1 c 0.828,0 1.5,-0.6715 1.5,-1.5 z M 377.5,50 v 2.6666 h 1 V 50 Z"
       fill="#ffffff"
       mask="url(#path-28-inside-1_260_2226)"
       id="path29" />
    <path
       d="M 367.667,44.6667 V 43.3334 C 367.667,40.3878 370.055,38 373,38 v 0 c 2.946,0 5.333,2.3878 5.333,5.3334 v 1.3333"
       stroke="#3d9ae2"
       stroke-width="2"
       stroke-linecap="round"
       id="path30" />
  </g>
  <rect
     x="-360"
     y="-35.400002"
     width="432"
     height="189"
     rx="4.5"
     stroke="#9747ff"
     stroke-dasharray="10, 5"
     id="rect63" />
  <defs
     id="defs65" />
</svg>
