<?xml version="1.0" encoding="UTF-8" standalone="no"?>
<svg
   width="31.768005"
   height="31.767399"
   viewBox="0 0 31.768005 31.767399"
   fill="none"
   version="1.1"
   id="svg65"
   sodipodi:docname="appbar tools final.svg"
   xmlns:inkscape="http://www.inkscape.org/namespaces/inkscape"
   xmlns:sodipodi="http://sodipodi.sourceforge.net/DTD/sodipodi-0.dtd"
   xmlns="http://www.w3.org/2000/svg"
   xmlns:svg="http://www.w3.org/2000/svg">
  <sodipodi:namedview
     id="namedview65"
     pagecolor="#ffffff"
     bordercolor="#666666"
     borderopacity="1.0"
     inkscape:showpageshadow="2"
     inkscape:pageopacity="0.0"
     inkscape:pagecheckerboard="0"
     inkscape:deskcolor="#d1d1d1" />
  <rect
     width="393"
     height="60"
     fill="#9cbeff"
     id="rect1"
     x="-97.115997"
     y="-14.116299" />
  <g
     clip-path="url(#clip0_260_2226)"
     id="g11"
     transform="translate(-117.116,-34.116299)">
    <path
       d="m 133,35.1163 c -8.194,0 -14.884,6.6894 -14.884,14.8837 0,8.1943 6.69,14.8837 14.884,14.8837 8.194,0 14.884,-6.6894 14.884,-14.8837 0,-8.1943 -6.69,-14.8837 -14.884,-14.8837 z m -0.883,4.3934 v 4.4187 c -0.474,0.0708 -0.94,0.1992 -1.385,0.3769 l -2.218,-3.8419 c 1.107,-0.5186 2.322,-0.8486 3.603,-0.9537 z m 1.766,0 c 1.282,0.105 2.496,0.435 3.603,0.9537 l -2.218,3.8411 c -0.445,-0.1776 -0.911,-0.3054 -1.385,-0.3761 z m 5.133,1.8351 c 1.03,0.7148 1.923,1.6092 2.638,2.639 l -3.838,2.2159 c -0.148,-0.189 -0.306,-0.3701 -0.476,-0.54 -0.17,-0.17 -0.351,-0.328 -0.54,-0.4761 z m -12.033,8e-4 2.217,3.838 c -0.189,0.148 -0.37,0.3063 -0.54,0.4762 -0.17,0.1699 -0.328,0.3516 -0.476,0.5407 l -3.838,-2.2167 c 0.714,-1.0294 1.608,-1.9235 2.637,-2.6382 z m -3.52,4.168 3.842,2.2182 c -0.177,0.4457 -0.305,0.9111 -0.376,1.3853 h -4.42 c 0.105,-1.2814 0.436,-2.4961 0.954,-3.6035 z m 19.074,0 c 0.518,1.1074 0.849,2.3221 0.954,3.6035 h -4.419 c -0.071,-0.4745 -0.199,-0.9402 -0.377,-1.3861 z m -20.028,5.3694 h 4.42 c 0.071,0.4741 0.198,0.9397 0.375,1.3852 l -3.841,2.2182 c -0.518,-1.1074 -0.849,-2.3221 -0.954,-3.6034 z m 16.563,0 h 4.419 c -0.105,1.2813 -0.436,2.496 -0.954,3.6034 l -3.842,-2.2174 c 0.178,-0.4459 0.306,-0.9116 0.377,-1.386 z m -10.888,2.9166 c 0.148,0.1891 0.306,0.3707 0.476,0.5407 0.169,0.1697 0.351,0.3274 0.54,0.4753 l -2.217,3.8388 c -1.029,-0.7146 -1.923,-1.6088 -2.637,-2.6381 z m 9.632,8e-4 3.838,2.2159 c -0.715,1.0298 -1.608,1.9241 -2.638,2.6389 L 136.8,54.8164 c 0.189,-0.1481 0.37,-0.3061 0.54,-0.4761 0.17,-0.1698 0.328,-0.351 0.476,-0.5399 z m -7.084,1.8944 c 0.445,0.1777 0.911,0.306 1.385,0.3769 v 4.4187 c -1.281,-0.1052 -2.496,-0.4351 -3.603,-0.9537 z m 4.536,8e-4 2.218,3.8411 c -1.107,0.5187 -2.321,0.8486 -3.603,0.9537 v -4.4187 c 0.474,-0.0708 0.94,-0.1986 1.385,-0.3761 z"
       stroke="#ffffff"
       stroke-width="2"
       stroke-linecap="round"
       stroke-linejoin="round"
       id="path2" />
    <path
       d="m 133,39.3735 h -0.883 v 4.6672 H 133 Z m -4.549,0.9822 -1.53,0.883 2.335,4.0418 1.529,-0.8829 z m -4.212,3.5665 -0.883,1.5291 4.042,2.3336 0.882,-1.5291 z m -1.866,5.1948 v 1.766 h 4.668 v -1.766 z m 5.025,3.0974 -4.042,2.3343 0.883,1.5291 4.041,-2.3336 z m 1.858,2.5043 -2.335,4.0426 1.53,0.883 2.334,-4.0419 z M 133,55.9593 h -0.883 v 4.6672 H 133 Z"
       fill="#78b9eb"
       id="path3" />
    <path
       d="m 133,44.0407 h 0.883 V 39.3735 H 133 Z m 4.549,-3.685 -2.335,4.0419 1.53,0.8829 2.334,-4.0418 z m 4.212,3.5665 -4.042,2.3336 0.883,1.5291 4.042,-2.3336 z m -2.802,5.1948 v 1.766 h 4.667 v -1.766 z m -0.357,3.0974 -0.883,1.5298 4.042,2.3336 0.883,-1.5291 z m -1.858,2.5043 -1.53,0.8837 2.335,4.0419 1.529,-0.883 z M 133,60.6265 h 0.883 V 55.9593 H 133 Z"
       fill="#78b9eb"
       id="path4" />
    <path
       d="M 132.5,64.3751 C 124.811,64.1098 118.616,57.7509 118.616,50 c 0,-7.7508 6.195,-14.1098 13.884,-14.3751 v 3.3565 c -5.883,0.2591 -10.53,5.0688 -10.53,11.0186 0,5.9498 4.647,10.7595 10.53,11.0186 z"
       fill="#3d9ae2"
       stroke="#ffffff"
       id="path5" />
    <path
       d="m 133.5,35.6249 c 7.689,0.2653 13.884,6.6243 13.884,14.3751 0,7.7509 -6.195,14.1098 -13.884,14.3751 v -3.3565 c 5.883,-0.2591 10.53,-5.0688 10.53,-11.0186 0,-5.9498 -4.647,-10.7595 -10.53,-11.0186 z"
       fill="#3d9ae2"
       stroke="#ffffff"
       id="path6" />
    <path
       d="m 133,43.8622 c -1.607,10e-5 -3.204,0.6613 -4.34,1.7975 -1.137,1.1363 -1.798,2.7334 -1.798,4.3403 0,1.6069 0.661,3.204 1.798,4.3403 1.136,1.1363 2.733,1.7975 4.34,1.7975 z"
       fill="#318bc3"
       id="path7" />
    <path
       d="m 133,47.3426 c -1.391,0 -2.657,1.2661 -2.657,2.6574 0,1.3913 1.266,2.6574 2.657,2.6574 1.391,0 2.657,-1.2661 2.657,-2.6574 0,-1.3913 -1.266,-2.6574 -2.657,-2.6574 z"
       fill="#3d9ae2"
       id="path8" />
    <path
       d="m 133,56.1378 c 1.607,0 3.204,-0.6612 4.34,-1.7975 1.137,-1.1363 1.798,-2.7334 1.798,-4.3403 0,-1.6069 -0.661,-3.204 -1.798,-4.3403 -1.136,-1.1362 -2.733,-1.7974 -4.34,-1.7975 z"
       fill="#ff7f2a"
       id="path9" />
    <path
       d="m 133,56.1378 c 1.607,0 3.204,-0.6612 4.34,-1.7975 1.137,-1.1363 1.798,-2.7334 1.798,-4.3403 0,-1.6069 -0.661,-3.204 -1.798,-4.3403 -1.136,-1.1362 -2.733,-1.7974 -4.34,-1.7975 z"
       fill="#318bc3"
       id="path10" />
    <path
       d="m 133,52.6574 c 1.391,0 2.657,-1.2661 2.657,-2.6574 0,-1.3913 -1.266,-2.6574 -2.657,-2.6574 z"
       fill="#3d9ae2"
       id="path11" />
  </g>
  <mask
     id="path-28-inside-1_260_2226"
     fill="#ffffff">
    <path
       fill-rule="evenodd"
       clip-rule="evenodd"
       d="M 361.586,43.9191 C 361,44.5049 361,45.4477 361,47.3333 v 8 c 0,3.7712 0,5.6569 1.172,6.8284 1.171,1.1716 3.057,1.1716 6.828,1.1716 h 8 c 3.771,0 5.657,0 6.828,-1.1716 C 385,60.9902 385,59.1045 385,55.3333 v -8 c 0,-1.8856 0,-2.8284 -0.586,-3.4142 -0.586,-0.5858 -1.528,-0.5858 -3.414,-0.5858 h -16 c -1.886,0 -2.828,0 -3.414,0.5858 z M 370,50 c 0,-0.5523 -0.448,-1 -1,-1 -0.552,0 -1,0.4477 -1,1 v 2.6666 c 0,0.5523 0.448,1 1,1 0.552,0 1,-0.4477 1,-1 z m 8,0 c 0,-0.5523 -0.448,-1 -1,-1 -0.552,0 -1,0.4477 -1,1 v 2.6666 c 0,0.5523 0.448,1 1,1 0.552,0 1,-0.4477 1,-1 z"
       id="path27" />
  </mask>
  <rect
     x="-116.616"
     y="-33.616299"
     width="432"
     height="189"
     rx="4.5"
     stroke="#9747ff"
     stroke-dasharray="10, 5"
     id="rect63" />
  <defs
     id="defs65">
    <clipPath
       id="clip0_260_2226">
      <rect
         width="32"
         height="32"
         fill="#ffffff"
         transform="translate(117,34)"
         id="rect64"
         x="0"
         y="0" />
    </clipPath>
  </defs>
</svg>
