<?xml version="1.0" encoding="UTF-8" standalone="no"?>
<svg
   width="32.65799"
   height="29.681953"
   viewBox="0 0 32.65799 29.681953"
   fill="none"
   version="1.1"
   id="svg65"
   sodipodi:docname="appbar tools final.svg"
   inkscape:version="1.3 (0e150ed6c4, 2023-07-21)"
   xmlns:inkscape="http://www.inkscape.org/namespaces/inkscape"
   xmlns:sodipodi="http://sodipodi.sourceforge.net/DTD/sodipodi-0.dtd"
   xmlns="http://www.w3.org/2000/svg"
   xmlns:svg="http://www.w3.org/2000/svg">
  <sodipodi:namedview
     id="namedview65"
     pagecolor="#ffffff"
     bordercolor="#666666"
     borderopacity="1.0"
     inkscape:showpageshadow="2"
     inkscape:pageopacity="0.0"
     inkscape:pagecheckerboard="0"
     inkscape:deskcolor="#d1d1d1"
     inkscape:zoom="1.6859122"
     inkscape:cx="201.07808"
     inkscape:cy="2.0760274"
     inkscape:window-width="1440"
     inkscape:window-height="837"
     inkscape:window-x="-8"
     inkscape:window-y="-8"
     inkscape:window-maximized="1"
     inkscape:current-layer="svg65" />
  <rect
     width="393"
     height="60"
     fill="#9cbeff"
     id="rect1"
     x="-197.17101"
     y="-15.484001" />
  <g
     id="g65"
     style="display:inline"
     inkscape:label="lotus"
     transform="translate(-217.17101,-35.484001)">
    <path
       d="m 233.5,43.6234 c -1.416,1.5312 -2.49,3.4389 -3.131,5.5592 -1.448,-1.6765 -3.206,-2.9824 -5.122,-3.8056 -0.67,1.9748 -0.876,4.155 -0.599,6.3529 -2.005,-0.9425 -4.142,-1.4205 -6.227,-1.3929 0.157,1.7608 0.68,3.5248 1.537,5.182 0.857,1.6573 2.028,3.1723 3.442,4.4506 1.419,1.272 3.048,2.2788 4.786,2.9575 1.737,0.6786 3.546,1.0147 5.314,0.9873 1.768,0.0274 3.577,-0.3087 5.314,-0.9873 1.738,-0.6787 3.367,-1.6855 4.786,-2.9575 1.414,-1.2783 2.585,-2.7933 3.442,-4.4506 0.857,-1.6572 1.38,-3.4212 1.537,-5.182 -2.085,-0.0275 -4.222,0.4505 -6.226,1.3929 0.277,-2.1979 0.071,-4.3781 -0.6,-6.3529 -1.916,0.8233 -3.674,2.1295 -5.122,3.8064 -0.641,-2.1206 -1.715,-4.0286 -3.131,-5.56 z"
       fill="#b3d8f4"
       stroke="#ffffff"
       stroke-width="2.5"
       stroke-linecap="round"
       stroke-linejoin="round"
       id="path13" />
    <path
       d="m 218.421,50.3368 c 0.157,1.7608 0.681,3.5247 1.537,5.182 0.857,1.6572 2.029,3.1722 3.442,4.4505 1.419,1.272 3.048,2.2788 4.786,2.9575 1.738,0.6787 3.547,1.0148 5.314,0.9875 -0.157,-1.7608 -0.681,-3.5247 -1.537,-5.1819 -0.857,-1.6572 -2.029,-3.1721 -3.442,-4.4504 -1.419,-1.2721 -3.048,-2.279 -4.786,-2.9577 -1.738,-0.6788 -3.547,-1.0149 -5.314,-0.9875 z"
       fill="#3d9ae2"
       id="path14" />
    <path
       d="m 225.247,45.3773 c -0.572,1.6726 -0.812,3.497 -0.703,5.3594 0.108,1.8624 0.563,3.7229 1.334,5.4656 0.779,1.7393 1.858,3.3216 3.169,4.6484 1.311,1.3268 2.827,2.3696 4.453,3.0636 0.572,-1.6726 0.812,-3.4969 0.703,-5.3593 -0.108,-1.8623 -0.562,-3.7228 -1.334,-5.4655 -0.779,-1.7393 -1.857,-3.3217 -3.169,-4.6485 -1.311,-1.3269 -2.827,-2.3698 -4.453,-3.0637 z"
       fill="#78b9eb"
       id="path15" />
    <path
       d="m 248.58,50.3368 c -0.158,1.7608 -0.681,3.5247 -1.538,5.182 -0.857,1.6572 -2.028,3.1722 -3.442,4.4505 -1.419,1.272 -3.048,2.2788 -4.786,2.9575 -1.737,0.6787 -3.546,1.0148 -5.314,0.9875 0.158,-1.7608 0.681,-3.5247 1.538,-5.1819 0.856,-1.6572 2.028,-3.1721 3.441,-4.4504 1.419,-1.2721 3.048,-2.279 4.786,-2.9577 1.738,-0.6788 3.547,-1.0149 5.315,-0.9875 z"
       fill="#3d9ae2"
       id="path16" />
    <path
       d="m 241.753,45.3773 c 0.573,1.6726 0.812,3.497 0.703,5.3594 -0.108,1.8624 -0.562,3.7229 -1.334,5.4656 -0.779,1.7393 -1.857,3.3216 -3.169,4.6484 -1.311,1.3268 -2.827,2.3696 -4.453,3.0636 -0.572,-1.6726 -0.811,-3.4969 -0.703,-5.3593 0.109,-1.8623 0.563,-3.7228 1.334,-5.4655 0.779,-1.7393 1.858,-3.3217 3.169,-4.6485 1.311,-1.3269 2.827,-2.3698 4.453,-3.0637 z"
       fill="#78b9eb"
       id="path17" />
    <path
       d="m 233.5,43.623 c -1.203,1.2953 -2.164,2.8646 -2.822,4.6101 -0.658,1.7455 -1,3.6299 -1.004,5.5357 0.004,1.9057 0.346,3.79 1.004,5.5355 0.658,1.7455 1.619,3.3147 2.822,4.61 1.203,-1.2953 2.164,-2.8645 2.822,-4.61 0.659,-1.7455 1,-3.6298 1.005,-5.5355 -0.005,-1.9058 -0.346,-3.7902 -1.005,-5.5357 -0.658,-1.7455 -1.619,-3.3148 -2.822,-4.6101 z"
       fill="#3d9ae2"
       id="path18" />
    <path
       d="m 233.5,39.1851 c 0.856,0 1.551,-0.6942 1.551,-1.5505 0,-0.8564 -0.695,-1.5506 -1.551,-1.5506 -0.856,0 -1.55,0.6942 -1.55,1.5506 0,0.8563 0.694,1.5505 1.55,1.5505 z"
       fill="#3d9ae2"
       stroke="#ffffff"
       stroke-width="1.2"
       stroke-linecap="round"
       stroke-linejoin="round"
       id="path19" />
    <path
       d="m 241.04,41.7823 c 0.856,0 1.55,-0.6942 1.55,-1.5506 0,-0.8563 -0.694,-1.5505 -1.55,-1.5505 -0.857,0 -1.551,0.6942 -1.551,1.5505 0,0.8564 0.694,1.5506 1.551,1.5506 z"
       fill="#3d9ae2"
       stroke="#ffffff"
       stroke-width="1.2"
       stroke-linecap="round"
       stroke-linejoin="round"
       id="path20" />
    <path
       d="m 225.96,41.7823 c 0.857,0 1.551,-0.6942 1.551,-1.5506 0,-0.8563 -0.694,-1.5505 -1.551,-1.5505 -0.856,0 -1.55,0.6942 -1.55,1.5505 0,0.8564 0.694,1.5506 1.55,1.5506 z"
       fill="#3d9ae2"
       stroke="#ffffff"
       stroke-width="1.2"
       stroke-linecap="round"
       stroke-linejoin="round"
       id="path21" />
  </g>
  <mask
     id="path-28-inside-1_260_2226"
     fill="#ffffff">
    <path
       fill-rule="evenodd"
       clip-rule="evenodd"
       d="M 361.586,43.9191 C 361,44.5049 361,45.4477 361,47.3333 v 8 c 0,3.7712 0,5.6569 1.172,6.8284 1.171,1.1716 3.057,1.1716 6.828,1.1716 h 8 c 3.771,0 5.657,0 6.828,-1.1716 C 385,60.9902 385,59.1045 385,55.3333 v -8 c 0,-1.8856 0,-2.8284 -0.586,-3.4142 -0.586,-0.5858 -1.528,-0.5858 -3.414,-0.5858 h -16 c -1.886,0 -2.828,0 -3.414,0.5858 z M 370,50 c 0,-0.5523 -0.448,-1 -1,-1 -0.552,0 -1,0.4477 -1,1 v 2.6666 c 0,0.5523 0.448,1 1,1 0.552,0 1,-0.4477 1,-1 z m 8,0 c 0,-0.5523 -0.448,-1 -1,-1 -0.552,0 -1,0.4477 -1,1 v 2.6666 c 0,0.5523 0.448,1 1,1 0.552,0 1,-0.4477 1,-1 z"
       id="path27" />
  </mask>
  <rect
     x="-216.67101"
     y="-34.984001"
     width="432"
     height="189"
     rx="4.5"
     stroke="#9747ff"
     stroke-dasharray="10, 5"
     id="rect63" />
  <defs
     id="defs65" />
</svg>
