<?xml version="1.0" encoding="UTF-8" standalone="no"?>
<!-- Created with Inkscape (http://www.inkscape.org/) -->

<svg
   width="43.45639mm"
   height="43.347958mm"
   viewBox="0 0 43.45639 43.347958"
   version="1.1"
   id="svg5"
   xml:space="preserve"
   xmlns:inkscape="http://www.inkscape.org/namespaces/inkscape"
   xmlns:sodipodi="http://sodipodi.sourceforge.net/DTD/sodipodi-0.dtd"
   xmlns:xlink="http://www.w3.org/1999/xlink"
   xmlns="http://www.w3.org/2000/svg"
   xmlns:svg="http://www.w3.org/2000/svg"><sodipodi:namedview
     id="namedview7"
     pagecolor="#ffffff"
     bordercolor="#666666"
     borderopacity="1.0"
     inkscape:showpageshadow="2"
     inkscape:pageopacity="0.0"
     inkscape:pagecheckerboard="0"
     inkscape:deskcolor="#d1d1d1"
     inkscape:document-units="mm"
     showgrid="false" /><defs
     id="defs2"><linearGradient
       inkscape:collect="always"
       id="linearGradient3393"><stop
         style="stop-color:#ffeeab;stop-opacity:1;"
         offset="0"
         id="stop3389" /><stop
         style="stop-color:#ffee51;stop-opacity:0.46126762;"
         offset="1"
         id="stop3391" /></linearGradient><linearGradient
       inkscape:collect="always"
       id="linearGradient3385"><stop
         style="stop-color:#ff8024;stop-opacity:1;"
         offset="0"
         id="stop3381" /><stop
         style="stop-color:#ff8024;stop-opacity:0.34859154;"
         offset="1"
         id="stop3383" /></linearGradient><linearGradient
       inkscape:collect="always"
       id="linearGradient3377"><stop
         style="stop-color:#ff7f2a;stop-opacity:1;"
         offset="0"
         id="stop3373" /><stop
         style="stop-color:#ff7f2a;stop-opacity:0.02464789;"
         offset="1"
         id="stop3375" /></linearGradient><linearGradient
       inkscape:collect="always"
       id="linearGradient2643"><stop
         style="stop-color:#ff6600;stop-opacity:1;"
         offset="0"
         id="stop2639" /><stop
         style="stop-color:#ffbe00;stop-opacity:1;"
         offset="1"
         id="stop2641" /></linearGradient><linearGradient
       inkscape:collect="always"
       xlink:href="#linearGradient2643"
       id="linearGradient2645"
       x1="685.60321"
       y1="107.19038"
       x2="687.6109"
       y2="170.47644"
       gradientUnits="userSpaceOnUse"
       gradientTransform="matrix(0.26458332,0,0,0.26458333,-159.5858,-9.5960988)" /><linearGradient
       inkscape:collect="always"
       xlink:href="#linearGradient3377"
       id="linearGradient3379"
       x1="685.02521"
       y1="76.102638"
       x2="686.42114"
       y2="136.56027"
       gradientUnits="userSpaceOnUse"
       gradientTransform="matrix(0.26458332,0,0,0.26458333,-159.5858,-9.5960988)" /><linearGradient
       inkscape:collect="always"
       xlink:href="#linearGradient3385"
       id="linearGradient3387"
       x1="685.57172"
       y1="92.716324"
       x2="685.52106"
       y2="144.15834"
       gradientUnits="userSpaceOnUse"
       gradientTransform="matrix(0.26458332,0,0,0.26458333,-159.5858,-9.5960988)" /><linearGradient
       inkscape:collect="always"
       xlink:href="#linearGradient3393"
       id="linearGradient3395"
       x1="684.84021"
       y1="143.39578"
       x2="685.36877"
       y2="90.615829"
       gradientUnits="userSpaceOnUse"
       gradientTransform="matrix(0.26458332,0,0,0.26458333,-159.5858,-9.5960988)" /><filter
       inkscape:collect="always"
       style="color-interpolation-filters:sRGB"
       id="filter8743"
       x="-0.27349076"
       y="-0.27349076"
       width="1.5469815"
       height="1.5469815"><feGaussianBlur
         inkscape:collect="always"
         stdDeviation="12.734414"
         id="feGaussianBlur8745" /></filter></defs><ellipse
     style="display:inline;fill:#d5403c;fill-opacity:0.980392;stroke-width:0.540999;stroke-linecap:round;stroke-linejoin:round;paint-order:markers stroke fill"
     id="ellipse2207"
     cx="21.791922"
     cy="29.785975"
     rx="17.96826"
     ry="4.3470073" /><ellipse
     style="display:inline;fill:#67403c;fill-opacity:0.980392;stroke-width:0.538036;stroke-linecap:round;stroke-linejoin:round;paint-order:markers stroke fill"
     id="ellipse383"
     ry="3.8881197"
     rx="17.025417"
     cy="30.266258"
     cx="21.876699" /><circle
     style="opacity:0.227041;fill:#ffc424;fill-opacity:1;stroke:none;stroke-width:2.04472;stroke-linecap:round;stroke-linejoin:round;paint-order:markers stroke fill;filter:url(#filter8743)"
     id="path7805"
     cx="664.625"
     cy="117.625"
     r="55.875"
     inkscape:label="light"
     transform="matrix(0.25137442,0,0,0.22530702,-145.34153,-7.0267419)" /><path
     id="path1983"
     style="opacity:1;fill:#ff5555;stroke-width:0.540999;stroke-linecap:round;stroke-linejoin:round;paint-order:markers stroke fill"
     d="m 3.8236699,29.785974 c -0.16559,0.616529 -0.35809,1.240568 -0.36723,1.866056 2.6e-4,6.459479 8.0815901,11.695848 18.2076701,11.695927 0.0215,0 0.0426,-0.0011 0.0641,-0.0011 l 10e-6,-13.410213 C 15.07337,35.808727 3.8268299,32.051366 3.8238799,29.785929 Z m 35.9365101,5e-5 c 0.16558,0.61653 0.23063,1.240549 0.23978,1.866038 -2.7e-4,6.459479 -8.08161,11.695832 -18.2077,11.695895 -0.0215,0 -0.0426,-0.0011 -0.0641,-0.0011 l 2e-5,-13.410213 c 6.65484,5.872094 18.02902,2.114775 18.03198,-0.150662 z"
     sodipodi:nodetypes="ccsccccccscccc" /><path
     id="path2328"
     style="opacity:1;fill:url(#linearGradient2645);fill-opacity:1;stroke-width:0.540999;stroke-linecap:round;stroke-linejoin:round;paint-order:markers stroke fill"
     d="M 21.72819,8.9023114 16.02776,20.576016 h 0.0134 c -0.47491,0.909119 -0.72495,1.918845 -0.72915,2.944524 0,3.543541 2.87261,6.416146 6.41615,6.416146 v -9.260417 -3.571875 z m -1e-5,0 5.70043,11.6737046 h -0.0134 c 0.47491,0.909119 0.72495,1.918845 0.72915,2.944524 0,3.543541 -2.87261,6.416146 -6.41614,6.416146 v -9.260417 -3.571875 z" /><path
     id="path2553"
     style="display:inline;opacity:1;fill:url(#linearGradient3379);fill-opacity:1;stroke-width:0.431636;stroke-linecap:round;stroke-linejoin:round;paint-order:markers stroke fill"
     d="m 21.72819,12.625192 -4.5481,9.313894 h 0.0107 c -0.37891,0.725342 -0.5784,1.530956 -0.58175,2.349296 0,2.827221 2.29191,5.119137 5.11914,5.119137 v -7.388447 -2.849827 z m -1e-5,0 4.5481,9.313894 h -0.0107 c 0.37891,0.725342 0.5784,1.530956 0.58175,2.349296 0,2.827221 -2.29191,5.119137 -5.11913,5.119137 v -7.388447 -2.849827 z" /><path
     id="path2555"
     style="display:inline;opacity:1;fill:url(#linearGradient3387);fill-opacity:1;stroke-width:0.356343;stroke-linecap:round;stroke-linejoin:round;paint-order:markers stroke fill"
     d="m 21.72819,15.023489 -3.75474,7.689204 h 0.009 c -0.31281,0.598813 -0.4775,1.263899 -0.48027,1.939491 0,2.334048 1.89212,4.226168 4.22617,4.226168 v -6.099627 -2.352709 z m -1e-5,0 3.75474,7.689204 h -0.009 c 0.31281,0.598813 0.4775,1.263899 0.48027,1.939491 0,2.334048 -1.89212,4.226168 -4.22617,4.226168 v -6.099627 -2.352709 z" /><path
     id="path2557"
     style="display:inline;opacity:1;fill:url(#linearGradient3395);fill-opacity:1;stroke-width:0.293788;stroke-linecap:round;stroke-linejoin:round;paint-order:markers stroke fill"
     d="m 21.72819,16.926475 -3.09562,6.339403 h 0.007 c -0.2579,0.493694 -0.39368,1.042028 -0.39597,1.599023 0,1.924317 1.55997,3.484285 3.48429,3.484285 v -5.028867 -1.939703 z m -1e-5,0 3.09562,6.339403 h -0.007 c 0.2579,0.493694 0.39368,1.042028 0.39597,1.599023 0,1.924317 -1.55997,3.484285 -3.48429,3.484285 v -5.028867 -1.939703 z" /></svg>
