<?xml version="1.0" encoding="UTF-8" standalone="no"?>
<!-- Created with Inkscape (http://www.inkscape.org/) -->

<svg
   width="36.543518mm"
   height="34.445656mm"
   viewBox="0 0 36.543518 34.445656"
   version="1.1"
   id="svg5"
   xml:space="preserve"
   xmlns:inkscape="http://www.inkscape.org/namespaces/inkscape"
   xmlns:sodipodi="http://sodipodi.sourceforge.net/DTD/sodipodi-0.dtd"
   xmlns:xlink="http://www.w3.org/1999/xlink"
   xmlns="http://www.w3.org/2000/svg"
   xmlns:svg="http://www.w3.org/2000/svg"><sodipodi:namedview
     id="namedview7"
     pagecolor="#ffffff"
     bordercolor="#666666"
     borderopacity="1.0"
     inkscape:showpageshadow="2"
     inkscape:pageopacity="0.0"
     inkscape:pagecheckerboard="0"
     inkscape:deskcolor="#d1d1d1"
     inkscape:document-units="mm"
     showgrid="false" /><defs
     id="defs2"><linearGradient
       inkscape:collect="always"
       id="linearGradient3377"><stop
         style="stop-color:#ff7f2a;stop-opacity:1;"
         offset="0"
         id="stop3373" /><stop
         style="stop-color:#ff7f2a;stop-opacity:0.02464789;"
         offset="1"
         id="stop3375" /></linearGradient><linearGradient
       inkscape:collect="always"
       xlink:href="#linearGradient3377"
       id="linearGradient825"
       gradientUnits="userSpaceOnUse"
       gradientTransform="matrix(0.26458332,0,0,0.26458333,-163.04224,-18.498404)"
       x1="685.02521"
       y1="76.102638"
       x2="686.42114"
       y2="136.56027" /></defs><ellipse
     style="display:inline;fill:#808080;fill-opacity:0.980392;stroke-width:0.540999;stroke-linecap:round;stroke-linejoin:round;paint-order:markers stroke fill"
     id="ellipse807"
     cx="18.335476"
     cy="20.883661"
     rx="17.96826"
     ry="4.3470073" /><ellipse
     style="display:inline;fill:#666666;fill-opacity:0.980392;stroke-width:0.538036;stroke-linecap:round;stroke-linejoin:round;paint-order:markers stroke fill"
     id="ellipse809"
     ry="3.8881197"
     rx="17.025417"
     cy="21.363955"
     cx="18.420254" /><path
     id="path811"
     style="opacity:1;fill:#999999;stroke-width:0.540999;stroke-linecap:round;stroke-linejoin:round;paint-order:markers stroke fill"
     d="m 0.36723031,20.883671 c -0.16559,0.61653 -0.35809,1.24057 -0.36722999667078,1.86605 C 2.6031333e-4,29.209198 8.0815903,34.445568 18.20767,34.445648 c 0.0215,0 0.0426,-10e-4 0.0641,-10e-4 l 10e-6,-13.410207 c -6.65485,5.872077 -17.90138969,2.11472 -17.90433969,-0.15072 z m 35.93650969,5e-5 c 0.16558,0.61653 0.23063,1.24055 0.23978,1.86604 -2.7e-4,6.459477 -8.08161,11.695827 -18.2077,11.695887 -0.0215,0 -0.0426,-10e-4 -0.0641,-10e-4 l 2e-5,-13.410207 c 6.65484,5.872087 18.02902,2.11477 18.03198,-0.15066 z"
     sodipodi:nodetypes="ccsccccccscccc" /><path
     id="path815"
     style="display:inline;opacity:1;fill:url(#linearGradient825);fill-opacity:1;stroke-width:0.431636;stroke-linecap:round;stroke-linejoin:round;paint-order:markers stroke fill"
     d="m 18.27175,3.7228906 -4.5481,9.3138904 h 0.0107 c -0.37891,0.72534 -0.5784,1.53096 -0.58175,2.3493 0,2.82722 2.29191,5.11913 5.11914,5.11913 v -7.38844 -2.84983 z m -10e-6,0 4.5481,9.3138904 h -0.0107 c 0.37891,0.72534 0.5784,1.53096 0.58175,2.3493 0,2.82722 -2.29191,5.11913 -5.11913,5.11913 v -7.38844 -2.84983 z" /><path
     id="path813"
     style="opacity:1;fill:#b3b3b3;fill-opacity:1;stroke-width:0.540999;stroke-linecap:round;stroke-linejoin:round;paint-order:markers stroke fill"
     d="M 18.27175,6.2653505e-7 12.57132,11.673711 h 0.0134 c -0.47491,0.90912 -0.72495,1.91885 -0.72915,2.94452 0,3.54355 2.87261,6.41615 6.41615,6.41615 v -9.26042 -3.5718704 z m -10e-6,0 L 23.97217,11.673711 h -0.0134 c 0.47491,0.90912 0.72495,1.91885 0.72915,2.94452 0,3.54355 -2.87261,6.41615 -6.41614,6.41615 v -9.26042 -3.5718704 z" /><path
     id="path817"
     style="display:inline;opacity:1;fill:#808080;fill-opacity:1;stroke-width:0.356343;stroke-linecap:round;stroke-linejoin:round;paint-order:markers stroke fill"
     d="m 18.27175,6.1211806 -3.75474,7.6892104 h 0.009 c -0.31281,0.59881 -0.4775,1.2639 -0.48027,1.93949 0,2.33405 1.89212,4.22617 4.22617,4.22617 v -6.09963 -2.35271 z m -10e-6,0 3.75474,7.6892104 h -0.009 c 0.31281,0.59881 0.4775,1.2639 0.48027,1.93949 0,2.33405 -1.89212,4.22617 -4.22617,4.22617 v -6.09963 -2.35271 z" /><path
     id="path819"
     style="display:inline;opacity:1;fill:#e6e6e6;fill-opacity:1;stroke-width:0.293788;stroke-linecap:round;stroke-linejoin:round;paint-order:markers stroke fill"
     d="m 18.27175,8.0241706 -3.09562,6.3394004 h 0.007 c -0.2579,0.4937 -0.39368,1.04203 -0.39597,1.59903 0,1.92431 1.55997,3.48428 3.48429,3.48428 v -5.02887 -1.9397 z m -10e-6,0 3.09562,6.3394004 h -0.007 c 0.2579,0.4937 0.39368,1.04203 0.39597,1.59903 0,1.92431 -1.55997,3.48428 -3.48429,3.48428 v -5.02887 -1.9397 z" /></svg>
