<?xml version="1.0" encoding="UTF-8" standalone="no"?>
<!-- Created with Inkscape (http://www.inkscape.org/) -->

<svg
   width="20.757389mm"
   height="7.6646886mm"
   viewBox="0 0 78.453125 28.968903"
   version="1.1"
   id="svg5"
   xml:space="preserve"
   inkscape:version="1.2.2 (732a01da63, 2022-12-09)"
   sodipodi:docname="ui.svg"
   xmlns:inkscape="http://www.inkscape.org/namespaces/inkscape"
   xmlns:sodipodi="http://sodipodi.sourceforge.net/DTD/sodipodi-0.dtd"
   xmlns="http://www.w3.org/2000/svg"
   xmlns:svg="http://www.w3.org/2000/svg"><sodipodi:namedview
     id="namedview7"
     pagecolor="#ffffff"
     bordercolor="#666666"
     borderopacity="1.0"
     inkscape:showpageshadow="2"
     inkscape:pageopacity="0.0"
     inkscape:pagecheckerboard="0"
     inkscape:deskcolor="#d1d1d1"
     inkscape:document-units="mm"
     showgrid="false"
     inkscape:zoom="1.4142136"
     inkscape:cx="911.46064"
     inkscape:cy="495.68185"
     inkscape:window-width="1440"
     inkscape:window-height="837"
     inkscape:window-x="-8"
     inkscape:window-y="-8"
     inkscape:window-maximized="1"
     inkscape:current-layer="layer5"
     showguides="true"><sodipodi:guide
       position="-195.71341,58.388504"
       orientation="1,0"
       id="guide33004"
       inkscape:locked="false" /><sodipodi:guide
       position="-6.7133981,36.388504"
       orientation="1,0"
       id="guide33006"
       inkscape:locked="false" /><sodipodi:guide
       position="-109.71339,-102.61149"
       orientation="0,-1"
       id="guide33010"
       inkscape:locked="false" /><sodipodi:guide
       position="-44.24771,85.838696"
       orientation="0,-1"
       id="guide34484"
       inkscape:locked="false" /><sodipodi:guide
       position="-100.81624,61.797055"
       orientation="1,0"
       id="guide34831"
       inkscape:locked="false" /></sodipodi:namedview><defs
     id="defs2" /><g
     inkscape:groupmode="layer"
     id="layer5"
     inkscape:label="dictionary"
     transform="translate(-856.71338,-340.4196)"><g
       aria-label="अ - ज्ञ"
       id="text9046"
       style="font-size:32px;line-height:1.25;font-family:Arial;-inkscape-font-specification:Arial;letter-spacing:0px;word-spacing:0px;fill:#621a14;fill-opacity:0.980392;stroke-width:0.626916"
       transform="translate(133.81996,6.7175146)"><path
         d="m 737.76843,344.68665 q 0.28125,0.0312 0.51563,0.0625 0.23437,0.0156 0.53125,0.0156 1,0 1.96875,-0.23437 0.98437,-0.23438 1.64062,-0.5625 v -9.71875 h 7.48438 v 3.51562 h -3.40625 V 357.546 h -4.07813 v -10.09375 q -0.1875,0.0937 -0.48437,0.1875 -0.29688,0.0937 -0.65625,0.17188 -0.34375,0.0781 -0.71875,0.125 -0.375,0.0469 -0.71875,0.0469 0.0781,0.39063 0.125,0.70313 0.0469,0.3125 0.0469,0.71875 0,1.40625 -0.53125,2.53125 -0.53125,1.10937 -1.46875,1.89062 -0.92187,0.76563 -2.1875,1.1875 -1.25,0.40625 -2.6875,0.40625 -1.48437,0 -2.70312,-0.42187 -1.21875,-0.42188 -2.21875,-1.14063 -1,-0.73437 -1.8125,-1.71875 -0.79688,-0.98437 -1.45313,-2.10937 -0.64062,-1.14063 -1.15625,-2.35938 -0.5,-1.23437 -0.90625,-2.4375 l 3.48438,-1.40625 q 0.28125,0.89063 0.625,1.82813 0.35937,0.9375 0.79687,1.82812 0.45313,0.875 0.98438,1.65625 0.54687,0.76563 1.1875,1.35938 0.65625,0.57812 1.40625,0.92187 0.76562,0.32813 1.65625,0.32813 1.375,0 2.09375,-0.79688 0.73437,-0.79687 0.73437,-2.14062 0,-0.82813 -0.26562,-1.42188 -0.26563,-0.59375 -0.73438,-0.98437 -0.46875,-0.39063 -1.10937,-0.5625 -0.64063,-0.1875 -1.39063,-0.1875 -0.15625,0 -0.375,0.0156 -0.21875,0 -0.45312,0.0156 -0.23438,0.0156 -0.46875,0.0312 -0.23438,0.0156 -0.40625,0.0312 v -3.51563 q 0.14062,0.0156 0.28125,0.0156 0.15625,0 0.29687,0 0.8125,0 1.51563,-0.125 0.70312,-0.125 1.21875,-0.42188 0.51562,-0.3125 0.8125,-0.82812 0.29687,-0.51563 0.29687,-1.28125 0,-1.17188 -0.6875,-1.70313 -0.6875,-0.53125 -1.85937,-0.53125 -0.875,0 -1.71875,0.25 -0.84375,0.23438 -1.64063,0.57813 l -0.9375,-3.40625 q 1.125,-0.54688 2.29688,-0.8125 1.1875,-0.26563 2.26562,-0.26563 1.42188,0 2.59375,0.42188 1.1875,0.42187 2.03125,1.15625 0.84375,0.73437 1.3125,1.73437 0.46875,0.98438 0.46875,2.125 0,1.375 -0.70312,2.5625 -0.6875,1.17188 -2.0625,2.0625 l 0.0156,0.0781 q 0.35938,0.17187 0.6875,0.39062 0.32813,0.21875 0.625,0.45313 z"
         style="font-weight:bold;-inkscape-font-specification:'Arial Bold'"
         id="path17341" /><path
         d="m 760.04968,351.43665 v -4.39063 h 8.625 v 4.39063 z"
         style="font-weight:bold;-inkscape-font-specification:'Arial Bold'"
         id="path17343" /><path
         d="m 788.33093,362.67102 q -0.26562,-0.51562 -0.625,-1.20312 -0.35937,-0.67188 -0.78125,-1.40625 -0.42187,-0.73438 -0.89062,-1.5 -0.46875,-0.76563 -0.9375,-1.45313 -0.45313,-0.70312 -0.90625,-1.29687 -0.4375,-0.60938 -0.8125,-1.01563 -1.25,-0.0312 -2.09375,-0.39062 -0.84375,-0.35938 -1.35938,-0.875 -0.5,-0.51563 -0.71875,-1.09375 -0.21875,-0.57813 -0.21875,-1.07813 0,-0.46875 0.17188,-0.90625 0.1875,-0.45312 0.53125,-0.79687 0.35937,-0.34375 0.875,-0.54688 0.51562,-0.20312 1.20312,-0.20312 0.4375,0 0.875,0.10937 0.4375,0.0937 0.90625,0.35938 0.46875,0.25 0.96875,0.67187 0.5,0.42188 1.04688,1.07813 1.78125,-0.4375 1.78125,-2.03125 0,-0.64063 -0.28125,-1.25 -0.28125,-0.625 -0.76563,-1.1875 -0.48437,-0.5625 -1.15625,-1.07813 -0.65625,-0.51562 -1.40625,-0.95312 -0.75,-0.4375 -1.5625,-0.79688 -0.8125,-0.375 -1.60937,-0.64062 v -3.32813 h 13.42187 v -2.09375 h -16.73437 v -3.51562 h 24.09375 v 3.51562 h -3.28125 v 19.78125 h -4.07813 V 343.3429 h -6.28125 v 0.15625 q 0.65625,0.34375 1.32813,0.90625 0.6875,0.54687 1.21875,1.28125 0.54687,0.71875 0.89062,1.60937 0.34375,0.875 0.34375,1.90625 0,0.84375 -0.25,1.625 -0.25,0.76563 -0.73437,1.42188 -0.46875,0.64062 -1.15625,1.15625 -0.6875,0.5 -1.5625,0.8125 v 0.0625 q 0.45312,0.54687 0.9375,1.17187 0.48437,0.60938 1.01562,1.35938 0.54688,0.75 1.15625,1.6875 0.60938,0.95312 1.3125,2.15625 z"
         style="font-weight:bold;-inkscape-font-specification:'Arial Bold'"
         id="path17345" /></g></g></svg>
